<svg xmlns="http://www.w3.org/2000/svg" viewBox="0 0 264 32"><defs><style>.cls-1 { fill: #fff; fill-rule: evenodd; }</style></defs><path class="cls-1" d="M256.5 7.6a14.6 14.6 0 0 0-4.2-.8 5 5 0 0 0-2.7.7 2 2 0 0 0-1 1.8 2.6 2.6 0 0 0 1.4 2.3 22 22 0 0 0 4.4 1.7 38.2 38.2 0 0 1 5 1.7 8.7 8.7 0 0 1 3.2 2.6 7.2 7.2 0 0 1 1.4 4.6 8 8 0 0 1-1.5 4.8 9 9 0 0 1-4 3 15.5 15.5 0 0 1-6 1 20.2 20.2 0 0 1-6.8-1.2 18.6 18.6 0 0 1-6-3.4l2.7-5.3a17.5 17.5 0 0 0 5 3.3 13.6 13.6 0 0 0 5.3 1.2 5.8 5.8 0 0 0 3.2-.7 2.6 2.6 0 0 0 .3-4 6 6 0 0 0-2-1.2l-3.3-1a35.6 35.6 0 0 1-4.8-1.7 8.5 8.5 0 0 1-3.3-2.6 7 7 0 0 1-1.4-4.5 7.6 7.6 0 0 1 1.4-4.7 9 9 0 0 1 4-3 15.3 15.3 0 0 1 5.8-1 20.4 20.4 0 0 1 6 .8 19.8 19.8 0 0 1 5 2.4l-2.5 5.4a22.2 22.2 0 0 0-4.8-2.2zM221.8 24a8.6 8.6 0 0 0 4.5 1.2 9.4 9.4 0 0 0 4-1 12.4 12.4 0 0 0 3.5-2.4l4 4.2a17.3 17.3 0 0 1-5.6 3.8 15.2 15.2 0 0 1-6.2 1.4 15.4 15.4 0 0 1-7.8-2 14.4 14.4 0 0 1-5.5-5.4 15 15 0 0 1-2-7.7 14.5 14.5 0 0 1 7.7-12.8 16 16 0 0 1 7.8-2 15.8 15.8 0 0 1 6.2 1.4 15.5 15.5 0 0 1 5.3 3.5l-4 4.8a11 11 0 0 0-3.4-2.8 9 9 0 0 0-4-1 8.7 8.7 0 0 0-7.7 4.5 9.7 9.7 0 0 0 0 9.2 8.7 8.7 0 0 0 3.2 3.3zm-22-22.3h6.4v29h-6.5v-29zM187.3 11L179.2 28H175L166.7 11v19.7h-6v-29h7.4l9 17.8 9-17.8h7.3v29h-5.8V11zm-45.6 21a15.5 15.5 0 0 1-8.4-2.4 1.3 1.3 0 0 0-1-.2l-3 1a1 1 0 0 1-1.5-1.5l.7-3.2a1.3 1.3 0 0 0-.2-1 15.4 15.4 0 0 1-2.4-8.5A15.6 15.6 0 1 1 142 32zM136 7.6c-2.7-.8-5.7 1.6-6.7 5.3s.5 7 3.2 8 5.8-1.8 6.8-5.5-.5-7.2-3.2-8zm5.4 18a1.6 1.6 0 1 0 2 1.8 1.6 1.6 0 0 0-2-1.8zm2.7-10c1 3.6 4 6 6.8 5.3s4.2-4.4 3.2-8-4-6.2-6.7-5.4-4.2 4.3-3.2 8zm8.3 2.3a3 3 0 0 1-2 1.5 4.7 4.7 0 0 0 1.7-4 9.3 9.3 0 0 0-.7-3.8 7.4 7.4 0 0 0-1.7-2.5 5.8 5.8 0 0 1 3.2 4 6.3 6.3 0 0 1-.5 4.7zm-20.7-.6a3.8 3.8 0 0 0 1.6 2.2 3 3 0 0 1-2-1.4 5.3 5.3 0 0 1-.8-2.6 7.2 7.2 0 0 1 1-4.5 4.8 4.8 0 0 1 2.3-1.8 8 8 0 0 0-2.2 4.4 8 8 0 0 0 0 3.8zM108 24a8.6 8.6 0 0 0 4.6 1.2 9.4 9.4 0 0 0 4-1 12.4 12.4 0 0 0 3.6-2.4l3.8 4a17.3 17.3 0 0 1-5.4 4 15.2 15.2 0 0 1-6.3 1.4 15.4 15.4 0 0 1-7.8-2 14.4 14.4 0 0 1-5.4-5.4 15 15 0 0 1-2-7.7 14.5 14.5 0 0 1 7.7-12.8 16 16 0 0 1 7.8-2 15.8 15.8 0 0 1 6.2 1.4A15.5 15.5 0 0 1 124 6l-3.8 4.8a11 11 0 0 0-3.5-2.8 9 9 0 0 0-4-1 8.7 8.7 0 0 0-7.8 4.5 9.7 9.7 0 0 0 0 9.2 8.7 8.7 0 0 0 3 3.3zM94.3 5.8l-3 5.3h-3L90 6a3 3 0 0 1-1.5-2.6 3 3 0 0 1 1-2.3A3 3 0 0 1 95 3a3.5 3.5 0 0 1-.2 1.3 11.6 11.6 0 0 1-.6 1.3zm-19 25H69v-9.3L58 1.7h6.6l7.4 13 7.3-13H86L75.2 21.4v9.3zM48.8 19.2H35.5v11.4H29v-29h6.5v12h13.2v-12h6.5v29h-6.5V19.3zm-34-6a38 38 0 0 1 4.8 1.7 8.7 8.7 0 0 1 3.3 2.6 7.2 7.2 0 0 1 1.4 4.6 8 8 0 0 1-1.5 4.8 9 9 0 0 1-4 3 15.6 15.6 0 0 1-6 1A20.2 20.2 0 0 1 6 30a18.7 18.7 0 0 1-6-3.4L2.6 21a17.5 17.5 0 0 0 5 3.3 13.6 13.6 0 0 0 5.3 1.2 5.8 5.8 0 0 0 3-.7 2.6 2.6 0 0 0 .4-4 6 6 0 0 0-2-1.2c-.7-.3-1.8-.7-3.2-1a35.6 35.6 0 0 1-5-1.7 8.5 8.5 0 0 1-3-2.6A7 7 0 0 1 1.6 10 7.6 7.6 0 0 1 3 5.2a9 9 0 0 1 4-3 15.3 15.3 0 0 1 6-1 20.4 20.4 0 0 1 6 .8 19.8 19.8 0 0 1 5 2.4l-2.5 5.4a22.2 22.2 0 0 0-4.8-2.2 14.6 14.6 0 0 0-4.3-.8 5 5 0 0 0-2.7.7 2 2 0 0 0-1 1.8 2.6 2.6 0 0 0 1.5 2.3 22 22 0 0 0 4.4 1.7z"/></svg>