<svg xmlns="http://www.w3.org/2000/svg" width="264" height="32" viewBox="0 0 264 32">
  <metadata><?xpacket begin="﻿" id="W5M0MpCehiHzreSzNTczkc9d"?>
<x:xmpmeta xmlns:x="adobe:ns:meta/" x:xmptk="Adobe XMP Core 5.6-c138 79.159824, 2016/09/14-01:09:01        ">
   <rdf:RDF xmlns:rdf="http://www.w3.org/1999/02/22-rdf-syntax-ns#">
      <rdf:Description rdf:about=""/>
   </rdf:RDF>
</x:xmpmeta>
                                                                                                    
                                                                                                    
                                                                                                    
                                                                                                    
                                                                                                    
                                                                                                    
                                                                                                    
                                                                                                    
                                                                                                    
                                                                                                    
                                                                                                    
                                                                                                    
                                                                                                    
                                                                                                    
                                                                                                    
                                                                                                    
                                                                                                    
                                                                                                    
                                                                                                    
                                                                                                    
                           
<?xpacket end="w"?></metadata>
<defs>
    <style>
      .cls-1 {
        fill: #fff;
        fill-rule: evenodd;
      }
    </style>
  </defs>
  <path class="cls-1" d="M414.358,1064.63a14.637,14.637,0,0,0-4.292-.8,5.005,5.005,0,0,0-2.695.62,2.009,2.009,0,0,0-1,1.82,2.555,2.555,0,0,0,1.431,2.34,22.045,22.045,0,0,0,4.416,1.67,38.166,38.166,0,0,1,4.913,1.74,8.708,8.708,0,0,1,3.3,2.61,7.216,7.216,0,0,1,1.368,4.59,7.864,7.864,0,0,1-1.472,4.78,9.057,9.057,0,0,1-4.043,3.04,15.548,15.548,0,0,1-5.846,1.04,20.224,20.224,0,0,1-6.925-1.24,18.649,18.649,0,0,1-5.888-3.4l2.612-5.34a17.542,17.542,0,0,0,5.059,3.19,13.644,13.644,0,0,0,5.225,1.2,5.83,5.83,0,0,0,3.172-.74,2.6,2.6,0,0,0,.373-4,6.041,6.041,0,0,0-1.949-1.18c-0.788-.3-1.873-0.64-3.255-1.03a35.6,35.6,0,0,1-4.872-1.66,8.542,8.542,0,0,1-3.255-2.52,6.975,6.975,0,0,1-1.369-4.51,7.628,7.628,0,0,1,1.41-4.57,9.012,9.012,0,0,1,3.939-3.03,15.274,15.274,0,0,1,5.889-1.05,20.41,20.41,0,0,1,5.888.87,19.817,19.817,0,0,1,5.141,2.32l-2.529,5.42A22.218,22.218,0,0,0,414.358,1064.63Zm-34.727,16.35a8.564,8.564,0,0,0,4.478,1.22,9.387,9.387,0,0,0,3.96-.93,12.385,12.385,0,0,0,3.587-2.5l3.856,4.18a17.321,17.321,0,0,1-5.452,3.8,15.187,15.187,0,0,1-6.282,1.41,15.41,15.41,0,0,1-7.755-1.97,14.372,14.372,0,0,1-5.473-5.4,14.979,14.979,0,0,1-1.99-7.65,14.451,14.451,0,0,1,7.609-12.91,16.027,16.027,0,0,1,7.857-1.95,15.771,15.771,0,0,1,6.22,1.31,15.525,15.525,0,0,1,5.225,3.53l-3.815,4.68a10.862,10.862,0,0,0-3.5-2.79,8.865,8.865,0,0,0-4.043-1.02,8.7,8.7,0,0,0-7.671,4.47,9.713,9.713,0,0,0,0,9.21A8.743,8.743,0,0,0,379.631,1080.98Zm-22.126-22.24h6.552v28.97h-6.552v-28.97Zm-12.244,9.39-8.252,16.64H332.78l-8.294-16.64v19.58H318.6v-28.97h7.3l9.04,17.79,8.956-17.79h7.257v28.97h-5.888v-19.58ZM299.631,1089a15.537,15.537,0,0,1-8.461-2.4,1.3,1.3,0,0,0-1.015-.16c-1.032.27-2.062,0.55-3.091,0.83a1.038,1.038,0,0,1-1.4-1.39q0.423-1.545.831-3.09a1.272,1.272,0,0,0-.157-1.01,15.44,15.44,0,0,1-2.407-8.45A15.551,15.551,0,1,1,299.631,1089Zm-5.747-24.44c-2.737-.74-5.749,1.64-6.727,5.32s0.449,7.25,3.186,7.99,5.749-1.64,6.727-5.32S296.622,1065.3,293.884,1064.56Zm5.326,18a1.614,1.614,0,1,0,1.872,1.86A1.617,1.617,0,0,0,299.21,1082.56Zm2.689-10.01c0.978,3.68,3.989,6.06,6.727,5.32s4.163-4.31,3.186-7.99-3.99-6.06-6.728-5.32S300.92,1068.88,301.9,1072.55Zm8.235,2.33a3.091,3.091,0,0,1-2.136,1.67,4.7,4.7,0,0,0,1.858-4.03,9.285,9.285,0,0,0-.752-3.83,7.369,7.369,0,0,0-1.682-2.48,5.77,5.77,0,0,1,3.178,4.12A6.308,6.308,0,0,1,310.134,1074.88Zm-20.723-.47a3.786,3.786,0,0,0,1.56,2.14,2.942,2.942,0,0,1-1.965-1.39,5.338,5.338,0,0,1-.829-2.55,7.248,7.248,0,0,1,1.16-4.52,4.791,4.791,0,0,1,2.21-1.88,8.12,8.12,0,0,0-2.262,4.38A7.852,7.852,0,0,0,289.411,1074.41Zm-23.466,6.57a8.565,8.565,0,0,0,4.479,1.22,9.39,9.39,0,0,0,3.96-.93,12.394,12.394,0,0,0,3.586-2.5l3.857,4.18a17.336,17.336,0,0,1-5.453,3.8,15.187,15.187,0,0,1-6.282,1.41,15.4,15.4,0,0,1-7.754-1.97,14.375,14.375,0,0,1-5.474-5.4,14.979,14.979,0,0,1-1.99-7.65,14.456,14.456,0,0,1,7.609-12.91,16.028,16.028,0,0,1,7.858-1.95,15.778,15.778,0,0,1,6.22,1.31,15.521,15.521,0,0,1,5.224,3.53l-3.815,4.68a10.869,10.869,0,0,0-3.5-2.79,8.868,8.868,0,0,0-4.043-1.02,8.7,8.7,0,0,0-7.672,4.47,9.713,9.713,0,0,0,0,9.21A8.743,8.743,0,0,0,265.945,1080.98ZM252,1062.79l-2.944,5.26h-3.11l1.949-5.22a2.872,2.872,0,0,1-1.368-2.6,3.144,3.144,0,0,1,.912-2.32,3.136,3.136,0,0,1,5.391,2.32,3.479,3.479,0,0,1-.208,1.22A11.628,11.628,0,0,1,252,1062.79Zm-18.866,24.92h-6.552v-9.19l-10.74-19.78h6.594l7.422,12.99,7.257-12.99H243.7l-10.574,19.61v9.36Zm-26.65-11.43H193.335v11.43h-6.551v-28.97h6.551v12.08H206.48v-12.08h6.552v28.97H206.48v-11.43Zm-34.085-6a38.132,38.132,0,0,1,4.914,1.74,8.724,8.724,0,0,1,3.3,2.61,7.216,7.216,0,0,1,1.368,4.59A7.864,7.864,0,0,1,180.5,1084a9.063,9.063,0,0,1-4.043,3.04,15.55,15.55,0,0,1-5.847,1.04,20.229,20.229,0,0,1-6.925-1.24,18.66,18.66,0,0,1-5.888-3.4l2.613-5.34a17.542,17.542,0,0,0,5.059,3.19,13.643,13.643,0,0,0,5.224,1.2,5.828,5.828,0,0,0,3.172-.74,2.6,2.6,0,0,0,.374-4,6.051,6.051,0,0,0-1.949-1.18c-0.788-.3-1.873-0.64-3.255-1.03a35.619,35.619,0,0,1-4.873-1.66,8.549,8.549,0,0,1-3.255-2.52,6.98,6.98,0,0,1-1.368-4.51,7.628,7.628,0,0,1,1.41-4.57,9,9,0,0,1,3.939-3.03,15.272,15.272,0,0,1,5.888-1.05,20.4,20.4,0,0,1,5.888.87,19.824,19.824,0,0,1,5.142,2.32l-2.529,5.42a22.218,22.218,0,0,0-4.748-2.18,14.642,14.642,0,0,0-4.292-.8,5,5,0,0,0-2.695.62,2.007,2.007,0,0,0-1,1.82,2.555,2.555,0,0,0,1.43,2.34A22.1,22.1,0,0,0,172.4,1070.28Z" transform="translate(-157.813 -1057)"/>
</svg>
